<svg xmlns="http://www.w3.org/2000/svg" width="24" height="24" preserveAspectRatio="none" style="display: block;" version="1.1" viewBox="0 0 2048 1875"><path fill="rgb(53,255,68)" d="M644.1 1278.1c13.9 6.6 72.7 19 89.7 22.7a1241 1241 0 0 0 435.7 21q50.1-7 99.8-17.6c22.3-4.6 44.6-9.3 66.7-15 11.3-2.8 25.3-5.4 36-9.2a596 596 0 0 0-70 197 743 743 0 0 0 14.8 335.7c3.2 10.9 7.8 23.6 9 34.7-27 11.5-169.5 23.7-174.7 27.6h-264.9c-9.2-5-56-6.2-69.2-8.2-71.3-10.7-143.4-19.5-214-34.2-52.3-11-103.5-25-154.5-40.2a1981 1981 0 0 1-324-125.7c-20.2-10.2-41.3-19.6-61.2-30.4-6.5-3.5-14.4-10-20.8-14.4 46.3-21.5 90.5-51.5 134.2-76.2l163.1-91.7c13-7.4 25.2-16.6 38.3-23.8 47.5-25.7 93.6-54 140.6-80.4 27.8-15.7 55.5-30.6 82.5-48 12.8-8.2 29-18.4 43-23.7"/><path fill="rgb(37,79,255)" d="M42.5 1621.9c-8.7-20.4 12.7-201 17.3-233.8a2093 2093 0 0 1 29.3-157.8c4-18.3 7.4-36.7 12-54.8a1822 1822 0 0 1 134.2-361.2c36.3-71.8 78.4-141 121.8-208.6 9.3-14.5 38-64.8 49.5-70.7 9.5-4.8 30.1 2.9 39.6 6.1a1133 1133 0 0 1 365.2 204.4c15.4 12.7 47 36.8 55.3 53.9-7.3 23.6-21 36.2-34.1 55.6-11 16.4-25.4 35.7-35.2 52.6-16.5 28.6-36 58.6-51.3 87.7a1125 1125 0 0 0-102 282.8c-14 5.3-30.1 15.5-43 23.8-27 17.3-54.6 32.2-82.4 48-47 26.4-93.1 54.6-140.6 80.3-13.1 7.2-25.3 16.4-38.3 23.8l-163 91.7c-43.8 24.7-88 54.7-134.3 76.2"/><path fill="rgb(53,255,68)" d="M1000.7 656c-69.4-65-141.6-124.7-223.4-173.6a1851 1851 0 0 0-126.7-66c-31.2-14.8-65.4-23.8-96.1-39-9.1-4.4-.3-16.4 4.8-21.4 31.3-30.7 60.4-63.3 94-91.5 12.3-10.5 23.5-23 36.2-33.4 10.4-8.5 21.1-16.2 31.6-24.5q96.3-76.6 202.3-139.3c16-9.7 52-33.8 68.4-34.8 19.3 2.6 68.8 34.6 88 46.2 140.8 83 269 186 380.5 305.5 131.6 138.7 237.3 297.3 320.2 468.9 13.3 27.3 36.9 68.8 43 98.4l-1.4.6c-12.1 5.4-27.8 8.2-41 11.3-22 5.4-44.6 10.4-65.9 18.6a665 665 0 0 0-267.8 190.2c-10.2 12.3-18.8 26.1-28.5 38.4a540 540 0 0 0-45.8 67c-3.5-22.3-10.3-39.7-17.4-61a2340 2340 0 0 0-53-141.2c-10.8-26.5-26.1-52-39-77.6-14.9-26.6-29.5-58-47.1-82.7-15.3-21.5-29.6-47.3-44.9-68a1486 1486 0 0 0-171-191"/><path fill="rgb(37,79,255)" d="M1000.7 656c-69.4-65-141.6-124.7-223.4-173.6a1851 1851 0 0 0-126.7-66c-31.2-14.8-65.4-23.8-96.1-39-9.1-4.4-.3-16.4 4.8-21.4 31.3-30.7 60.4-63.3 94-91.5 12.3-10.5 23.5-23 36.2-33.4 10.4-8.5 21.1-16.2 31.6-24.5q96.3-76.6 202.3-139.3c16-9.7 52-33.8 68.4-34.8 1.4 25.5.5 52.5 1.1 78.3l4.5 230.7 3.9 180.8 1.5 79.7c.3 13.1 3.8 44.4-2.1 54m541.6 721.9c65-111 163.8-189.9 288.5-224.2 18.3-5 41.7-10.9 60.5-11.2 10.2 26.9 16 54.6 23.5 82.1 26.8 98.3 40 199.5 49.7 300.8 2.3 23.4 8.9 74.3 5.3 95.8-7 14.5-55.9 35-70.5 42.2-14.3 7.2-30.7 16-45.3 22.9a2068 2068 0 0 1-281.9 108c-9.5 2.9-45 14.8-50.9 10.7-10.6-7.3-22-61.4-25.3-75.3-20.2-86.1-19.5-162.7 4.4-247.9 11.7-41.2 18.5-66 42-103.9"/><path fill="rgb(53,255,68)" d="M1542.3 1377.9c65-111 163.8-189.9 288.5-224.2 18.3-5 41.7-10.9 60.5-11.2 10.2 26.9 16 54.6 23.5 82.1 26.8 98.3 40 199.5 49.7 300.8 2.3 23.4 8.9 74.3 5.3 95.8-11.2-4.3-21.8-13.6-32.7-19-53-26.4-102.1-59.5-155-86.6-17-10.2-33.7-21.3-51-31.2-21.2-12-43.5-23.2-64.5-35.5-30.8-18-60.3-36.7-92.4-52.4-10.7-5.2-20.4-15.5-31.9-18.6"/></svg>